<?xml version="1.0" encoding="UTF-8" standalone="no"?>
<!-- Created with Inkscape (http://www.inkscape.org/) -->

<svg
   xmlns:dc="http://purl.org/dc/elements/1.1/"
   xmlns:cc="http://creativecommons.org/ns#"
   xmlns:rdf="http://www.w3.org/1999/02/22-rdf-syntax-ns#"
   xmlns:svg="http://www.w3.org/2000/svg"
   xmlns="http://www.w3.org/2000/svg"
   xmlns:sodipodi="http://sodipodi.sourceforge.net/DTD/sodipodi-0.dtd"
   xmlns:inkscape="http://www.inkscape.org/namespaces/inkscape"
   width="131.28737mm"
   height="13.975517mm"
   viewBox="0 0 131.28737 13.975517"
   version="1.1"
   id="svg3757"
   sodipodi:docname="email-wordmark.svg"
   inkscape:export-filename="/home/leo/Documents/Freelance/mcardle.io/email-wordmark.png"
   inkscape:export-xdpi="199.92104"
   inkscape:export-ydpi="199.92104"
   inkscape:version="0.92.1 r">
  <defs
     id="defs3751" />
  <sodipodi:namedview
     id="base"
     pagecolor="#ffffff"
     bordercolor="#666666"
     borderopacity="1.0"
     inkscape:pageopacity="0.0"
     inkscape:pageshadow="2"
     inkscape:zoom="2.8"
     inkscape:cx="187.15803"
     inkscape:cy="33.415833"
     inkscape:document-units="mm"
     inkscape:current-layer="flowRoot3966"
     showgrid="false"
     fit-margin-top="0"
     fit-margin-left="0"
     fit-margin-right="0"
     fit-margin-bottom="0"
     inkscape:window-width="2580"
     inkscape:window-height="1376"
     inkscape:window-x="860"
     inkscape:window-y="27"
     inkscape:window-maximized="0"
     showguides="false" />
  <metadata
     id="metadata3754">
    <rdf:RDF>
      <cc:Work
         rdf:about="">
        <dc:format>image/svg+xml</dc:format>
        <dc:type
           rdf:resource="http://purl.org/dc/dcmitype/StillImage" />
        <dc:title></dc:title>
      </cc:Work>
    </rdf:RDF>
  </metadata>
  <g
     inkscape:label="Layer 1"
     inkscape:groupmode="layer"
     id="layer1"
     transform="translate(-7.7630389,-143.56018)">
    <g
       aria-label="leo@mcardle.io"
       transform="matrix(1.1941117,0,0,1.1938084,-347.73325,14.939983)"
       style="font-style:normal;font-weight:normal;font-size:40px;line-height:25px;font-family:sans-serif;letter-spacing:0px;word-spacing:0px;fill:#890067;fill-opacity:1;stroke:none"
       id="flowRoot3966">
      <path
         d="m 301.9744,117.71273 c 0.61333,0 1.01333,-0.13333 1.54667,-0.4 l -0.16,-0.32 c -0.48,0.24 -0.93334,0.34667 -1.36,0.34667 -0.96,0 -1.44,-0.50667 -1.44,-1.54667 v -7.86666 h -2.85334 v 0.37333 h 2.45334 v 7.41333 c 0,1.42667 0.66666,2 1.81333,2 z"
         style="font-style:normal;font-variant:normal;font-weight:200;font-stretch:normal;font-family:'Source Code Pro';-inkscape-font-specification:'Source Code Pro Ultra-Light'"
         id="path4070" />
      <path
         d="m 308.82253,117.71273 c 1.16,0 1.84,-0.38666 2.4,-0.74666 l -0.18667,-0.34667 c -0.6,0.42667 -1.30667,0.72 -2.21333,0.72 -1.53334,0 -2.88,-1.05333 -2.90667,-2.96 h 5.54667 c 0.0267,-0.16 0.0267,-0.29333 0.0267,-0.42667 0,-1.84 -1.12,-2.93333 -2.82666,-2.93333 -1.65334,0 -3.17334,1.28 -3.17334,3.36 0,2.08 1.52,3.33333 3.33334,3.33333 z m -0.16,-6.32 c 1.38666,0 2.37333,0.84 2.45333,2.61334 h -5.18667 c 0.16,-1.65334 1.44,-2.61334 2.73334,-2.61334 z"
         style="font-style:normal;font-variant:normal;font-weight:200;font-stretch:normal;font-family:'Source Code Pro';-inkscape-font-specification:'Source Code Pro Ultra-Light'"
         id="path4072" />
      <path
         d="m 316.41732,117.71273 c 1.66667,0 3.06667,-1.22666 3.06667,-3.33333 0,-2.13333 -1.4,-3.36 -3.06667,-3.36 -1.66667,0 -3.06667,1.22667 -3.06667,3.36 0,2.10667 1.4,3.33333 3.06667,3.33333 z m 0,-0.37333 c -1.52,0 -2.64,-1.2 -2.64,-2.96 0,-1.76 1.12,-2.98667 2.64,-2.98667 1.52,0 2.64,1.22667 2.64,2.98667 0,1.76 -1.12,2.96 -2.64,2.96 z"
         style="font-style:normal;font-variant:normal;font-weight:200;font-stretch:normal;font-family:'Source Code Pro';-inkscape-font-specification:'Source Code Pro Ultra-Light'"
         id="path4074" />
      <path
         d="m 324.97211,119.44607 c 0.84,0 1.54667,-0.24 2.18667,-0.74667 l -0.21334,-0.29333 c -0.53333,0.44 -1.17333,0.66666 -1.97333,0.66666 -1.94667,0 -3.28,-1.86666 -3.28,-4.8 0,-2.94666 1.46667,-4.72 3.37333,-4.72 1.56,0 2.17334,1.22667 2.17334,2.73334 v 0.17333 c -2.45334,0.29333 -3.68,0.98667 -3.68,2.26667 0,1.12 0.81333,1.65333 1.73333,1.65333 0.66667,0 1.46667,-0.50667 1.89333,-1.01333 h 0.0533 l 0.0533,0.85333 h 0.34667 v -3.94667 c 0,-1.76 -0.82667,-3.09333 -2.53334,-3.09333 -2.21333,0 -3.84,1.85333 -3.84,5.06667 0,3.28 1.64,5.2 3.70667,5.2 z m 0.37333,-3.44 c -0.82666,0 -1.36,-0.46667 -1.36,-1.28 0,-1 0.94667,-1.6 3.25334,-1.92 v 2.05333 c -0.64,0.77333 -1.33334,1.14667 -1.89334,1.14667 z"
         style="font-style:normal;font-variant:normal;font-weight:200;font-stretch:normal;font-family:'Source Code Pro';-inkscape-font-specification:'Source Code Pro Ultra-Light'"
         id="path4076" />
      <path
         d="m 329.02024,117.55273 h 1.49333 v -4.57333 c 0.24,-0.54667 0.46667,-0.82667 0.81333,-0.82667 0.37334,0 0.52,0.29334 0.52,0.86667 v 4.53333 h 1.28 v -4.57333 c 0.26667,-0.54667 0.46667,-0.82667 0.82667,-0.82667 0.36,0 0.52,0.29334 0.52,0.86667 v 4.53333 h 1.48 v -4.64 c 0,-1.30666 -0.53333,-2.06666 -1.45333,-2.06666 -0.76,0 -1.18667,0.45333 -1.49334,1.09333 -0.17333,-0.72 -0.58666,-1.09333 -1.18666,-1.09333 -0.76,0 -1.17334,0.42666 -1.45334,0.98666 h -0.04 l -0.12,-0.82666 h -1.18666 z"
         style="font-style:normal;font-variant:normal;font-weight:600;font-stretch:normal;font-size:13.33333397px;font-family:'Source Code Pro';-inkscape-font-specification:'Source Code Pro Semi-Bold';fill:#890067"
         id="path4078" />
      <path
         d="m 340.98836,117.71273 c 0.93334,0 1.89334,-0.33333 2.65334,-0.98666 l -0.64,-0.98667 c -0.50667,0.38667 -1.12,0.72 -1.86667,0.72 -1.29333,0 -2.17333,-0.86667 -2.17333,-2.17333 0,-1.32 0.90666,-2.18667 2.21333,-2.18667 0.58667,0 1.10667,0.21333 1.61333,0.62667 l 0.73334,-0.96 c -0.54667,-0.52 -1.37334,-0.92 -2.42667,-0.92 -2,0 -3.72,1.25333 -3.72,3.44 0,2.17333 1.56,3.42666 3.61333,3.42666 z"
         style="font-style:normal;font-variant:normal;font-weight:600;font-stretch:normal;font-size:13.33333397px;font-family:'Source Code Pro';-inkscape-font-specification:'Source Code Pro Semi-Bold';fill:#890067"
         id="path4080" />
      <path
         d="m 347.52982,117.71273 c 0.88,0 1.76,-0.44 2.45333,-0.97333 h 0.04 l 0.12,0.81333 h 1.25333 v -3.88 c 0,-1.82666 -1,-2.82666 -2.81333,-2.82666 -1.12,0 -2.2,0.44 -2.98667,0.90666 l 0.56,1.02667 c 0.68,-0.37333 1.41334,-0.69333 2.14667,-0.69333 1.06667,0 1.50667,0.54666 1.56,1.28 -3.22667,0.22666 -4.52,0.96 -4.52,2.42666 0,1.14667 0.90667,1.92 2.18667,1.92 z m 0.46666,-1.2 c -0.65333,0 -1.17333,-0.25333 -1.17333,-0.84 0,-0.70666 0.69333,-1.18666 3.04,-1.34666 v 1.38666 c -0.6,0.48 -1.21333,0.8 -1.86667,0.8 z"
         style="font-style:normal;font-variant:normal;font-weight:600;font-stretch:normal;font-size:13.33333397px;font-family:'Source Code Pro';-inkscape-font-specification:'Source Code Pro Semi-Bold';fill:#890067"
         id="path4082" />
      <path
         d="m 354.12461,117.55273 h 1.54667 v -3.61333 c 0.66666,-1.26667 1.54666,-1.73333 2.44,-1.73333 0.49333,0 0.76,0.0667 1.18666,0.2 l 0.32,-1.29334 c -0.38666,-0.18666 -0.73333,-0.26666 -1.26666,-0.26666 -1.13334,0 -2.12,0.58666 -2.78667,1.64 h -0.04 l -0.13333,-1.48 h -1.26667 z"
         style="font-style:normal;font-variant:normal;font-weight:600;font-stretch:normal;font-size:13.33333397px;font-family:'Source Code Pro';-inkscape-font-specification:'Source Code Pro Semi-Bold';fill:#890067"
         id="path4084" />
      <path
         d="m 363.89274,117.71273 c 0.73333,0 1.46666,-0.41333 1.97333,-0.92 h 0.04 l 0.12,0.76 h 1.26667 v -9.41333 h -1.54667 v 2.37333 l 0.08,1.10667 h -0.04 c -0.50667,-0.49333 -1.05333,-0.77333 -1.8,-0.77333 -1.49333,0 -2.89333,1.30666 -2.89333,3.44 0,2.16 1.12,3.42666 2.8,3.42666 z m 0.37333,-1.26666 c -1,0 -1.58667,-0.76 -1.58667,-2.17334 0,-1.37333 0.76,-2.16 1.66667,-2.16 0.48,0 0.93333,0.16 1.4,0.6 v 2.94667 c -0.45333,0.53333 -0.93333,0.78667 -1.48,0.78667 z"
         style="font-style:normal;font-variant:normal;font-weight:600;font-stretch:normal;font-size:13.33333397px;font-family:'Source Code Pro';-inkscape-font-specification:'Source Code Pro Semi-Bold';fill:#890067"
         id="path4086" />
      <path
         d="m 373.72753,117.71273 c 0.76,0 1.21333,-0.13333 1.85333,-0.37333 l -0.36,-1.13333 c -0.41333,0.17333 -0.77333,0.25333 -1.12,0.25333 -0.65333,0 -1.17333,-0.33333 -1.17333,-1.21333 v -7.10667 h -3.6 v 1.21333 h 2.06666 v 5.81334 c 0,1.61333 0.81334,2.54666 2.33334,2.54666 z"
         style="font-style:normal;font-variant:normal;font-weight:600;font-stretch:normal;font-size:13.33333397px;font-family:'Source Code Pro';-inkscape-font-specification:'Source Code Pro Semi-Bold';fill:#890067"
         id="path4088" />
      <path
         d="m 380.77566,117.71273 c 0.96,0 1.86666,-0.32 2.56,-0.77333 l -0.52,-0.96 c -0.58667,0.33333 -1.14667,0.54667 -1.84,0.54667 -1.21334,0 -2.08,-0.58667 -2.25334,-1.8 h 4.81334 c 0.0267,-0.17334 0.0667,-0.46667 0.0667,-0.77334 0,-1.81333 -1.08,-3.10666 -3.02666,-3.10666 -1.76,0 -3.38667,1.29333 -3.38667,3.42666 0,2.17334 1.58667,3.44 3.58667,3.44 z m -0.16,-5.68 c 0.93333,0 1.52,0.53334 1.62666,1.6 h -3.48 c 0.2,-1.05333 0.94667,-1.6 1.85334,-1.6 z"
         style="font-style:normal;font-variant:normal;font-weight:600;font-stretch:normal;font-size:13.33333397px;font-family:'Source Code Pro';-inkscape-font-specification:'Source Code Pro Semi-Bold';fill:#890067"
         id="path4090" />
      <path
         d="m 388.37045,117.71273 c 0.76,0 1.32,-0.57333 1.32,-1.34666 0,-0.77334 -0.56,-1.34667 -1.32,-1.34667 -0.76,0 -1.32,0.57333 -1.32,1.34667 0,0.77333 0.56,1.34666 1.32,1.34666 z"
         style="font-style:normal;font-variant:normal;font-weight:600;font-stretch:normal;font-size:13.33333397px;font-family:'Source Code Pro';-inkscape-font-specification:'Source Code Pro Semi-Bold';fill:#890067"
         id="path4092" />
      <path
         d="m 396.32523,117.55273 h 1.53334 v -6.54666 h -4.37334 v 1.21333 h 2.84 z m 0.65334,-7.74666 c 0.62666,0 1.09333,-0.4 1.09333,-1.02667 0,-0.61333 -0.46667,-1.04 -1.09333,-1.04 -0.62667,0 -1.09334,0.42667 -1.09334,1.04 0,0.62667 0.46667,1.02667 1.09334,1.02667 z"
         style="font-style:normal;font-variant:normal;font-weight:600;font-stretch:normal;font-size:13.33333397px;font-family:'Source Code Pro';-inkscape-font-specification:'Source Code Pro Semi-Bold';fill:#890067"
         id="path4094" />
      <path
         d="m 404.36003,117.71273 c 1.72,0 3.29333,-1.25333 3.29333,-3.42666 0,-2.18667 -1.57333,-3.44 -3.29333,-3.44 -1.72,0 -3.29333,1.25333 -3.29333,3.44 0,2.17333 1.57333,3.42666 3.29333,3.42666 z m 0,-1.25333 c -1.06667,0 -1.70667,-0.86667 -1.70667,-2.17333 0,-1.32 0.64,-2.18667 1.70667,-2.18667 1.06667,0 1.70667,0.86667 1.70667,2.18667 0,1.30666 -0.64,2.17333 -1.70667,2.17333 z"
         style="font-style:normal;font-variant:normal;font-weight:600;font-stretch:normal;font-size:13.33333397px;font-family:'Source Code Pro';-inkscape-font-specification:'Source Code Pro Semi-Bold';fill:#890067"
         id="path4096" />
    </g>
  </g>
</svg>
